<?xml version="1.0" encoding="UTF-8" standalone="no" ?>
<!DOCTYPE svg PUBLIC "-//W3C//DTD SVG 1.1//EN" "http://www.w3.org/Graphics/SVG/1.1/DTD/svg11.dtd">
<svg xmlns="http://www.w3.org/2000/svg" xmlns:xlink="http://www.w3.org/1999/xlink" version="1.1" width="1280" height="1024" viewBox="0 0 1280 1024" xml:space="preserve">
<desc>Created with Fabric.js 5.3.0</desc>
<defs>
</defs>
<g transform="matrix(1 0 0 1 640 512)" id="background-logo"  >
<rect style="stroke: none; stroke-width: 0; stroke-dasharray: none; stroke-linecap: butt; stroke-dashoffset: 0; stroke-linejoin: miter; stroke-miterlimit: 4; fill: rgb(255,254,250); fill-rule: nonzero; opacity: 1;"  paint-order="stroke"  x="-640" y="-512" rx="0" ry="0" width="1280" height="1024" />
</g>
<g transform="matrix(1.9211538461538462 0 0 1.9211538461538462 638.0332187499998 680.8461803979558)" id="text-logo"  >
<g style=""  paint-order="stroke"   >
		<g transform="matrix(1 0 0 1 0 0)" id="text-logo-path-0"  >
<path style="stroke: rgb(255,255,255); stroke-width: 0; stroke-dasharray: none; stroke-linecap: butt; stroke-dashoffset: 0; stroke-linejoin: miter; stroke-miterlimit: 4; fill: rgb(255,213,0); fill-rule: nonzero; opacity: 1;"  paint-order="stroke"  transform=" translate(-218.92499999999998, 22.049999999999997)" d="M 18.9 0.63 C 28.98 0.63 35.22 -6.62 35.22 -12.79 C 35.22 -20.1 28.6 -24.44 20.73 -26.96 C 15.44 -28.73 13.92 -29.67 13.92 -31.75 C 13.92 -33.58 16.13 -34.65 18.52 -34.65 C 21.17 -34.65 23.18 -33.26 25.14 -29.61 L 34.02 -34.9 C 30.81 -40.26 24.95 -44.73 18.52 -44.73 C 10.96 -44.73 3.84 -38.87 3.84 -31.75 C 3.84 -23.56 10.39 -20.48 17.83 -18.02 C 22.81 -16.38 24.7 -15.12 24.7 -12.79 C 24.7 -10.9 22.81 -9.45 18.9 -9.45 C 15.5 -9.45 12.66 -10.52 10.33 -14.99 L 1.76 -9.89 C 5.1 -4.16 10.77 0.63 18.9 0.63 Z M 48.89 0 L 58.97 0 L 58.97 -44.1 L 48.89 -44.1 Z M 97.27 0 L 100.42 0 L 111.13 -24.19 L 111.13 0 L 121.21 0 L 121.21 -44.1 L 110.5 -44.1 L 98.85 -19.59 L 87.19 -44.1 L 76.48 -44.1 L 76.48 0 L 86.56 0 L 86.56 -24.19 Z M 138.73 0 L 159.07 0 C 166.51 0 172.68 -6.17 172.68 -13.73 C 172.68 -18.08 170.41 -21.29 167.08 -23.18 C 169.85 -25.14 170.92 -28.1 170.92 -31.75 C 170.92 -38.81 165 -44.1 157.94 -44.1 L 138.73 -44.1 Z M 148.81 -9.45 L 148.81 -17.96 L 157.81 -17.96 C 160.46 -17.96 161.97 -16.38 161.97 -13.73 C 161.97 -10.96 160.4 -9.45 157.81 -9.45 Z M 148.81 -27.41 L 148.81 -34.65 L 156.68 -34.65 C 159.07 -34.65 160.21 -33.45 160.21 -31.12 C 160.21 -28.54 159.07 -27.41 156.68 -27.41 Z M 211.62 0 L 222.96 0 L 208.47 -44.1 L 197.13 -44.1 L 182.64 0 L 193.98 0 L 196.06 -7.25 L 209.54 -7.25 Z M 198.77 -16.7 L 202.8 -30.87 L 206.83 -16.7 Z M 266.68 0 L 276.76 0 L 276.76 -34.65 L 287.97 -34.65 L 287.97 -44.1 L 255.4 -44.1 L 255.4 -34.65 L 266.68 -34.65 Z M 302.02 0 L 331.25 0 L 331.25 -9.45 L 312.1 -9.45 L 312.1 -17.32 L 328.67 -17.32 L 328.67 -26.77 L 312.1 -26.77 L 312.1 -34.65 L 330.62 -34.65 L 330.62 -44.1 L 302.02 -44.1 Z M 366.22 0.63 C 375.23 0.63 381.91 -3.15 386.25 -11.34 L 377.37 -16.19 C 375.16 -11.97 371.13 -9.45 366.22 -9.45 C 358.97 -9.45 353.62 -14.49 353.62 -22.05 C 353.62 -29.3 358.66 -34.65 366.22 -34.65 C 371.07 -34.65 374.72 -32.57 377.18 -28.22 L 386.19 -32.89 C 382.22 -40.19 374.91 -44.73 366.22 -44.73 C 353.05 -44.73 343.54 -35.78 343.54 -22.05 C 343.54 -8.88 352.48 0.63 366.22 0.63 Z M 426.01 0 L 436.09 0 L 436.09 -44.1 L 426.01 -44.1 L 426.01 -26.77 L 410.26 -26.77 L 410.26 -44.1 L 400.18 -44.1 L 400.18 0 L 410.26 0 L 410.26 -17.32 L 426.01 -17.32 Z" stroke-linecap="round" />
</g>
</g>
</g>
<g transform="matrix(1.9211538461538462 0 0 1.9211538461538462 641.0270310208158 813.5943215491643)" id="tagline-74998845-0efb-406c-9433-58832f08fef7-logo"  >
<g style=""  paint-order="stroke"   >
		<g transform="matrix(1 0 0 1 0 0)" id="tagline-74998845-0efb-406c-9433-58832f08fef7-logo-path-0"  >
<path style="stroke: rgb(255,255,255); stroke-width: 0; stroke-dasharray: none; stroke-linecap: butt; stroke-dashoffset: 0; stroke-linejoin: miter; stroke-miterlimit: 4; fill: rgb(255,213,0); fill-rule: nonzero; opacity: 1;"  paint-order="stroke"  transform=" translate(-218.63500000000002, 15.4)" d="M 20.94 -30.8 L 26.31 -25.43 L 26.31 -11.97 L 20.94 -6.6 L 9.5 -6.6 L 9.5 0 L 2.11 0 L 2.11 -30.8 L 20.94 -30.8 Z M 9.5 -24.9 L 9.5 -12.5 L 18.92 -12.5 L 18.92 -24.9 L 9.5 -24.9 Z M 56.23 0 L 34.14 0 L 34.14 -30.8 L 55.79 -30.8 L 55.79 -24.64 L 41.54 -24.64 L 41.54 -18.66 L 53.59 -18.66 L 53.59 -12.76 L 41.54 -12.76 L 41.54 -6.16 L 56.23 -6.16 L 56.23 0 Z M 71.41 0 L 64.15 0 L 64.15 -30.8 L 73.04 -30.8 L 79.2 -17.69 L 85.36 -30.8 L 94.25 -30.8 L 94.25 0 L 86.99 0 L 86.99 -21.38 L 80.78 -8.62 L 77.62 -8.62 L 71.41 -21.38 L 71.41 0 Z M 108.2 0 L 102.83 -5.37 L 102.83 -25.43 L 108.2 -30.8 L 123.42 -30.8 L 128.79 -25.43 L 128.79 -5.37 L 123.42 0 L 108.2 0 Z M 121.13 -24.38 L 110.48 -24.38 L 110.48 -6.42 L 121.13 -6.42 L 121.13 -24.38 Z M 144.76 0 L 137.37 0 L 137.37 -30.8 L 144.76 -30.8 L 144.76 -19.18 L 154.7 -19.18 L 154.7 -30.8 L 162.1 -30.8 L 162.1 0 L 154.7 0 L 154.7 -12.5 L 144.76 -12.5 L 144.76 0 Z M 184.71 0 L 177.32 0 L 177.32 -24.64 L 169.58 -24.64 L 169.58 -30.8 L 192.46 -30.8 L 192.46 -24.64 L 184.71 -24.64 L 184.71 0 Z M 229.77 0 L 222.38 0 L 222.38 -24.64 L 214.63 -24.64 L 214.63 -30.8 L 237.51 -30.8 L 237.51 -24.64 L 229.77 -24.64 L 229.77 0 Z M 267.08 0 L 244.99 0 L 244.99 -30.8 L 266.64 -30.8 L 266.64 -24.64 L 252.38 -24.64 L 252.38 -18.66 L 264.44 -18.66 L 264.44 -12.76 L 252.38 -12.76 L 252.38 -6.16 L 267.08 -6.16 L 267.08 0 Z M 281.25 0 L 273.24 0 L 280.1 -16.28 L 273.9 -30.8 L 281.82 -30.8 L 286.13 -19.18 L 288.68 -19.18 L 293 -30.8 L 300.92 -30.8 L 294.71 -16.28 L 301.58 0 L 293.57 0 L 288.99 -12.5 L 285.82 -12.5 L 281.25 0 Z M 315.92 0 L 308.53 0 L 308.53 -30.8 L 315.92 -30.8 L 315.92 -19.18 L 325.86 -19.18 L 325.86 -30.8 L 333.26 -30.8 L 333.26 0 L 325.86 0 L 325.86 -12.5 L 315.92 -12.5 L 315.92 0 Z M 367.66 -30.8 L 367.66 0 L 360.4 0 L 360.4 -20.33 L 348.96 0 L 341.97 0 L 341.97 -30.8 L 349.23 -30.8 L 349.23 -10.47 L 360.67 -30.8 L 367.66 -30.8 Z M 383.77 0 L 376.38 0 L 376.38 -30.8 L 383.77 -30.8 L 383.77 -18.83 L 388.92 -18.83 L 393.93 -30.8 L 402.2 -30.8 L 395.56 -16.28 L 402.86 0 L 394.5 0 L 389.27 -12.41 L 383.77 -12.41 L 383.77 0 Z M 435.16 -30.8 L 435.16 0 L 427.9 0 L 427.9 -20.33 L 416.46 0 L 409.46 0 L 409.46 -30.8 L 416.72 -30.8 L 416.72 -10.47 L 428.16 -30.8 L 435.16 -30.8 Z" stroke-linecap="round" />
</g>
</g>
</g>
<g transform="matrix(1.9211538461538462 0 0 1.9211538461538462 640 409.4079192239244)" id="logo-logo"  >
<g style=""  paint-order="stroke"   >
		<g transform="matrix(0.07788250306762162 0 0 -0.07788250306762162 0 2.842171e-14)"  >
<path style="stroke: none; stroke-width: 1; stroke-dasharray: none; stroke-linecap: butt; stroke-dashoffset: 0; stroke-linejoin: miter; stroke-miterlimit: 10; fill: rgb(255,213,0); fill-rule: nonzero; opacity: 1;"  paint-order="stroke"  transform=" translate(-2523.902576356759, -2592.9257494689555)" d="M 3125.49 2388.34 C 3176.3599999999997 2309.3500000000004 3199.66 2206.27 3032.22 2140.4 C 2881.8599999999997 2080.57 2633.6299999999997 2132.14 2591.3199999999997 2229.2000000000003 C 2569.9599999999996 2274.7500000000005 2598.0199999999995 2339.3100000000004 2627.68 2387.1200000000003 C 2659.4199999999996 2437.6300000000006 2719.22 2479.7100000000005 2763.62 2527.5200000000004 C 2755.02 2536.6400000000003 2746.5699999999997 2545.8000000000006 2738.15 2555.0300000000007 C 2603.15 2545.3200000000006 2468.33 2542.3400000000006 2283.48 2558.8800000000006 C 2343.41 2489.4600000000005 2382.89 2442.9400000000005 2430.42 2401.0900000000006 C 2533.27 2312.8200000000006 2535.39 2227.0900000000006 2397.5 2163.8000000000006 C 2277.6 2109.7300000000005 2131.06 2098.600000000001 1999.42 2168.5900000000006 C 1859.43 2244.850000000001 1930.13 2330.2800000000007 1944.29 2412.6900000000005 C 1954 2465.3400000000006 1949.6499999999999 2523.3000000000006 1934.77 2577.7900000000004 C 1892.35 2731.2000000000003 1845.06 2885.2100000000005 1828.12 3039.6500000000005 C 1821.8799999999999 3096.4300000000007 1845.05 3156.6300000000006 1869.55 3208.5200000000004 C 1934.6399999999999 3344.0200000000004 2012.73 3384.8000000000006 2153.7599999999998 3344.4500000000003 C 2279.89 3309.67 2403.3799999999997 3255.7200000000003 2548.2099999999996 3227.2300000000005 C 2649.3099999999995 3254.5800000000004 2765.5599999999995 3313.3200000000006 2883.8499999999995 3350.5000000000005 C 3063.0199999999995 3408.1100000000006 3184.2899999999995 3362.1500000000005 3213.629999999999 3163.5500000000006 C 3237.829999999999 2983.7700000000004 3193.5699999999993 2790.3800000000006 3142.539999999999 2606.3800000000006 C 3122.399999999999 2530.0500000000006 3076.859999999999 2465.9300000000007 3125.489999999999 2388.3400000000006 z M 2533.5899999999997 1813.25 C 2254.8499999999995 1818.4 2090.6699999999996 1927.08 2063.8999999999996 2061.7 C 2230.1099999999997 2078 2386.6699999999996 2106.47 2536.5099999999998 2145.3599999999997 C 2673.4599999999996 2107.1899999999996 2834.5499999999997 2072.93 3006.33 2051.9999999999995 C 2978.34 1914.1899999999996 2814.36 1810.2699999999995 2533.59 1813.2499999999995 z M 3748.22 2967.1099999999997 C 3733.3599999999997 3016.37 3716.23 3067.9399999999996 3689.1099999999997 3111.4999999999995 C 3576.5899999999997 3290.2199999999993 3463.4599999999996 3485.3999999999996 3354.24 3659.3799999999997 C 3237.2 3842.0799999999995 3091.1699999999996 3877.1499999999996 2858.9399999999996 3857.1499999999996 C 2639.5999999999995 3837.7499999999995 2416.7499999999995 3831.2899999999995 2197.7799999999997 3843.6499999999996 C 1997.5499999999997 3854.5399999999995 1820.8599999999997 3815.6199999999994 1715.5299999999997 3653.5999999999995 C 1596.0499999999997 3467.6699999999996 1459.3399999999997 3262.6899999999996 1351.6499999999996 3065.4099999999994 C 1246.3099999999997 2857.4299999999994 1271.5999999999997 2794.3999999999996 1370.2899999999997 2680.8399999999992 C 1413.8399999999997 2634.1199999999994 1439.9699999999998 2571.3699999999994 1421.8399999999997 2497.9899999999993 C 1371.7999999999997 2271.999999999999 1392.9299999999996 2244.1599999999994 1606.0099999999998 2152.1399999999994 C 1679.1199999999997 2122.1699999999996 1713.0699999999997 2082.4099999999994 1705.8999999999999 1997.9999999999995 C 1688.3799999999999 1759.1599999999996 1764.7299999999998 1674.9599999999996 2035.1499999999999 1618.0999999999995 C 2147.3199999999997 1595.7999999999995 2246.6 1555.1699999999994 2322.8399999999997 1492.5199999999995 C 2396.1 1432.5599999999995 2462.3799999999997 1375.4699999999996 2531.9599999999996 1323.7099999999996 C 2657.5599999999995 1430.4699999999996 2804.0499999999997 1575.5599999999995 3068.2699999999995 1615.0399999999995 C 3281.2699999999995 1649.0899999999995 3334.0899999999997 1717.9799999999996 3346.7699999999995 1911.4899999999996 C 3354.6799999999994 2092.6799999999994 3360.7199999999993 2094.7699999999995 3529.1699999999996 2177.4999999999995 C 3653.9199999999996 2242.6799999999994 3672.0999999999995 2282.7599999999998 3644.1599999999994 2417.1899999999996 C 3615.4099999999994 2541.3699999999994 3634.7099999999996 2644.0199999999995 3711.6199999999994 2724.1199999999994 C 3771.1499999999996 2789.2199999999993 3775.2699999999995 2872.3099999999995 3748.2199999999993 2967.1099999999997" stroke-linecap="round" />
</g>
		<g transform="matrix(0.07788250306762162 0 0 -0.07788250306762162 -28.02637150677208 -29.468690335358843)"  >
<path style="stroke: none; stroke-width: 1; stroke-dasharray: none; stroke-linecap: butt; stroke-dashoffset: 0; stroke-linejoin: miter; stroke-miterlimit: 10; fill: rgb(255,213,0); fill-rule: nonzero; opacity: 1;"  paint-order="stroke"  transform=" translate(-2163.985675011802, -2971.365)" d="M 1985.91 3125.88 C 2023.78 3034.51 2040.93 2947.5 2101.09 2894.67 C 2157.19 2845.53 2257.75 2836.5 2338.82 2816.85 C 2362.98 2995.34 2252.7400000000002 3080.3599999999997 1985.91 3125.88" stroke-linecap="round" />
</g>
		<g transform="matrix(0.07788250306762162 0 0 -0.07788250306762162 28.32860717851969 -30.21854687404044)"  >
<path style="stroke: none; stroke-width: 1; stroke-dasharray: none; stroke-linecap: butt; stroke-dashoffset: 0; stroke-linejoin: miter; stroke-miterlimit: 10; fill: rgb(255,213,0); fill-rule: nonzero; opacity: 1;"  paint-order="stroke"  transform=" translate(-2887.7010474108047, -2980.995)" d="M 2724.45 2828.32 C 2930.81 2840.6400000000003 3079.33 2935.78 3048.0499999999997 3133.67 C 2814.66 3087.65 2710.3099999999995 3002.66 2724.45 2828.32" stroke-linecap="round" />
</g>
</g>
</g>
</svg>